<svg width="33" height="32" viewBox="0 0 33 32" fill="none" xmlns="http://www.w3.org/2000/svg">
<path d="M16.4991 4.36163e-07C8.40756 -0.00103577 1.50982 5.83565 0.214299 13.7798C-1.08124 21.724 3.60799 29.43 11.2851 31.9728C12.1119 32.1208 12.408 31.6159 12.408 31.1817C12.408 30.7919 12.3947 29.7589 12.3898 28.3856C7.80077 29.3724 6.83171 26.1848 6.83171 26.1848C6.52959 25.193 5.88012 24.3415 5.00107 23.7851C3.51275 22.767 5.11518 22.79 5.11518 22.79C6.17465 22.9344 7.10713 23.559 7.64036 24.4809C8.0917 25.2972 8.8521 25.9003 9.75262 26.1562C10.6531 26.4123 11.6192 26.3 12.4361 25.8444C12.5128 25.0121 12.8851 24.2343 13.4861 23.6502C9.82489 23.2374 5.9751 21.8295 5.9751 15.5415C5.95477 13.9151 6.56197 12.3429 7.67178 11.1483C7.16964 9.73266 7.22878 8.17989 7.83715 6.80609C7.83715 6.80609 9.22129 6.36364 12.3716 8.4854C15.0735 7.74856 17.925 7.74856 20.6268 8.4854C23.7787 6.362 25.1612 6.80609 25.1612 6.80609C25.7724 8.17925 25.8316 9.73308 25.3266 11.1483C26.4405 12.3428 27.0472 13.9191 27.0199 15.5481C27.0199 21.8525 23.1668 23.2374 19.4923 23.6437C20.2849 24.4498 20.6916 25.5554 20.6086 26.6799C20.6086 28.8741 20.5887 30.6438 20.5887 31.1817C20.5887 31.6208 20.8831 32.1307 21.7248 31.9695C29.3988 29.4224 34.083 21.716 32.7847 13.7739C31.4865 5.8318 24.5892 -0.00184171 16.4991 4.36163e-07Z" fill="black"/>
</svg>
